<svg width="50" height="50" viewBox="0 0 50 50" fill="none" xmlns="http://www.w3.org/2000/svg">
<path d="M8.33301 29.1667V25H22.9163V29.1667H8.33301ZM8.33301 20.8333V16.6667H31.2497V20.8333H8.33301ZM8.33301 12.5V8.33333H31.2497V12.5H8.33301ZM27.083 41.6667V35.2604L38.5934 23.8021C38.9059 23.4896 39.2531 23.2639 39.6351 23.125C40.017 22.9861 40.399 22.9167 40.7809 22.9167C41.1976 22.9167 41.5969 22.9948 41.9788 23.151C42.3608 23.3073 42.708 23.5417 43.0205 23.8542L44.9476 25.7812C45.2254 26.0937 45.4424 26.441 45.5986 26.8229C45.7549 27.2049 45.833 27.5868 45.833 27.9687C45.833 28.3507 45.7636 28.7413 45.6247 29.1406C45.4858 29.5399 45.2601 29.8958 44.9476 30.2083L33.4893 41.6667H27.083ZM30.208 38.5417H32.1872L38.4893 32.1875L37.5518 31.1979L36.5622 30.2604L30.208 36.5625V38.5417ZM37.5518 31.1979L36.5622 30.2604L38.4893 32.1875L37.5518 31.1979Z" fill="#008B9F"/>
</svg>
